<?xml version="1.0" encoding="UTF-8"?><svg id="Layer_1" xmlns="http://www.w3.org/2000/svg" viewBox="0 0 1455.88 295.37"><defs><style>.cls-1{fill:#fff;}</style></defs><path class="cls-1" d="M477.38,286.75c-4.01-3.53-8.01-8.66-12.02-15.37-4.01-6.72-8.25-15.37-12.72-25.98l-61.51-147.11,.11-.04-28.62-68.13-9.29-22.22-.02,.05-3.33-7.94-22.84,9.59,12.63,30.07-86.8,203.26c-1.18,2.83-2.89,6.66-5.12,11.49-2.24,4.83-4.77,9.72-7.6,14.67-2.83,4.95-5.78,9.49-8.84,13.61-3.07,4.13-6.12,6.89-9.19,8.31h36.76l-1.41-.71c-4.01-3.3-6.54-6.54-7.6-9.72-1.06-3.18-1.59-5.95-1.59-8.3,0-3.3,.65-7.3,1.94-12.02,1.29-4.71,3.24-10.36,5.83-16.96l21.56-49.48h125.47l19.44,45.59c3.3,7.54,5.66,14.08,7.07,19.62,1.41,5.54,2.12,10.07,2.12,13.61s-.71,6.89-2.12,10.07c-1.41,3.18-3.77,5.95-7.07,8.31h60.79c-1.18-.47-2.24-1.12-3.18-1.94-.94-.82-1.89-1.59-2.83-2.3Zm-198.63-95.78l62.91-145.97,61.14,145.97h-124.05Z"/><path class="cls-1" d="M699.55,13.54c.82,.71,1.59,1.42,2.3,2.12,2.83,3.3,4.89,8.01,6.18,14.14,1.29,6.13,1.94,14.49,1.94,25.09V246.81L518.06,11.43l-35.38-4.3c1.7,2.2,2.65,4.47,7.99,11.59,4.17,4.66,5.91,7.75,12.32,15.61l-15.64,46.71s-21.74,82.98,9.58,148.66,109.86,61.24,109.86,61.24l-5.14-28.35s-27.81,10.36-61.24-1.33c-33.42-11.69-51.19-49.55-55.63-96.77-4.26-45.29,12.99-91.01,27.19-119.41l201.54,246.28V54.9c0-9.42,.53-17.02,1.59-22.8,1.06-5.77,2.53-10.19,4.42-13.25,1.18-1.41,2.35-2.77,3.53-4.06,1.18-1.29,2.47-2.41,3.89-3.36h-29.69c.71,.71,1.47,1.41,2.3,2.12Z"/><path class="cls-1" d="M800.67,278.9c-.48-1.88-1.12-5.13-1.94-9.72-.83-4.6-1.24-12.19-1.24-22.8V55.88c0-19.55,2.48-32.28,7.42-38.17,.71-1.18,1.65-2.3,2.83-3.36,1.18-1.06,2.35-2.06,3.53-3h-53.72c4.95,3.3,8.48,7.42,10.6,12.37,.71,1.89,1.41,5.07,2.12,9.54,.71,4.48,1.06,12.02,1.06,22.62V246.38c0,19.56-2.36,32.4-7.07,38.52-1.65,2.6-3.77,4.6-6.36,6.01h53.72c-5.18-3.06-8.84-7.07-10.96-12.02Z"/><path class="cls-1" d="M1122.9,278.97c-.48-1.88-1.12-5.13-1.94-9.72-.83-4.6-1.24-12.19-1.24-22.8V55.96c0-19.55,2.48-32.28,7.42-38.17,.71-1.18,1.65-2.3,2.83-3.36,1.18-1.06,2.35-2.06,3.53-3h-53.72c4.95,3.3,8.48,7.42,10.6,12.37,.71,1.89,1.41,5.07,2.12,9.54,.71,4.48,1.06,12.02,1.06,22.62V246.46c0,19.56-2.36,32.4-7.07,38.52-1.65,2.6-3.77,4.6-6.36,6.01h53.72c-5.18-3.06-8.84-7.07-10.96-12.02Z"/><path class="cls-1" d="M1408.52,283.35c-1.65,2.6-3.77,4.6-6.36,6.01h53.72c-5.18-3.06-8.84-7.07-10.96-12.02-.48-1.88-1.12-5.13-1.94-9.72-.83-4.6-1.24-12.19-1.24-22.8V54.32c0-19.55,2.48-32.28,7.42-38.17,.71-1.18,1.65-2.3,2.83-3.36,1.18-1.06,2.35-2.06,3.53-3h-53.72c4.95,3.3,8.48,7.42,10.6,12.37,.71,1.89,1.41,5.07,2.12,9.54,.71,4.48,1.06,12.02,1.06,22.62V244.82c0,19.56-2.36,32.4-7.07,38.52Z"/><path class="cls-1" d="M958.67,25.58V11.27l-25.8,14.31h0s-76.89,0-76.89,0l-13.23,38.84c2.53-3.05,56.34-29.21,90.12-36.79V247.87c0,18.15-2.24,30.16-6.72,36.05-1.65,2.6-3.89,4.95-6.71,7.07h52.31c-1.89-.94-3.54-2.35-4.95-4.24-5.42-5.65-8.13-18.61-8.13-38.88V27.71c33.8,7.68,87.25,33.67,89.77,36.71l-13.23-38.84h-76.54Z"/><path class="cls-1" d="M244.4,29.06c4.59-7.18,10.3-13.13,17.14-17.85h-42.77c1.18,.48,2.12,1.06,2.83,1.77,.71,.71,1.41,1.3,2.12,1.77,5.89,5.18,8.84,11.08,8.84,17.67,0,4.01-.83,9.13-2.47,15.37-1.65,6.24-4.48,13.84-8.48,22.8l-76.7,187.67L62.91,68.47c-3.54-8.24-6.25-15.43-8.13-21.56-1.89-6.12-2.83-11.19-2.83-15.2s.82-7.54,2.48-10.6c1.64-3.06,3.76-5.89,6.36-8.48,.71-.23,1.41-.71,2.12-1.41H0c5.42,3.3,9.66,7.07,12.72,11.31,1.18,1.18,2.65,3.48,4.42,6.89,1.77,3.42,4.65,9.6,8.66,18.55l107.09,247.4L232.91,51.15c3.06-7.54,6.89-14.9,11.49-22.09Z"/><path class="cls-1" d="M1280.91,24.02V9.72l-25.8,14.31h-76.89l-13.23,38.84c2.53-3.05,56.34-29.21,90.12-36.79V246.31c0,18.15-2.24,30.16-6.72,36.05-1.65,2.6-3.89,4.95-6.71,7.07h52.31c-1.89-.94-3.54-2.35-4.95-4.24-5.42-5.65-8.13-18.61-8.13-38.88V26.16c33.8,7.68,87.25,33.67,89.77,36.71l-13.23-38.84h-76.54Z"/></svg>